HIERARCHY
ROOT Hips
{
	OFFSET -3.958830 18.904000 13.208200
	CHANNELS 6 Xposition Yposition Zposition Zrotation Yrotation Xrotation 
	JOINT LHipJoint
	{
		OFFSET 0.000000 0.000000 0.000000
		CHANNELS 3 Zrotation Yrotation Xrotation
		JOINT LeftUpLeg
		{
			OFFSET 1.800000 -1.400000 0.085000
			CHANNELS 3 Zrotation Yrotation Xrotation
			JOINT LeftLeg
			{
				OFFSET 2.215000 -6.000000 0.000000
				CHANNELS 3 Zrotation Yrotation Xrotation
				JOINT LeftFoot
				{
					OFFSET 2.500000 -6.900000 0.000000
					CHANNELS 3 Zrotation Yrotation Xrotation
					JOINT LeftToeBase
					{
						OFFSET 0.200000 -0.500000 1.950000
						CHANNELS 3 Zrotation Yrotation Xrotation
						End Site
						{
							OFFSET 0.000000 0.000000 0.000000
						}
					}
				}
			}
		}
	}
	JOINT RHipJoint
	{
		OFFSET 0.000000 0.000000 0.000000
		CHANNELS 3 Zrotation Yrotation Xrotation
		JOINT RightUpLeg
		{
			OFFSET -1.800000 -1.400000 0.085000
			CHANNELS 3 Zrotation Yrotation Xrotation
			JOINT RightLeg
			{
				OFFSET -2.215000 -6.000000 0.000000
				CHANNELS 3 Zrotation Yrotation Xrotation
				JOINT RightFoot
				{
					OFFSET -2.500000 -6.900000 0.000000
					CHANNELS 3 Zrotation Yrotation Xrotation
					JOINT RightToeBase
					{
						OFFSET -0.200000 -0.500000 1.950000
						CHANNELS 3 Zrotation Yrotation Xrotation
						End Site
						{
							OFFSET 0.000000 0.000000 0.000000
						}
					}
				}
			}
		}
	}
	JOINT LowerBack
	{
		OFFSET 0.000000 0.000000 0.000000
		CHANNELS 3 Zrotation Yrotation Xrotation
		JOINT Spine
		{
			OFFSET -0.087000 1.940000 -0.288900
			CHANNELS 3 Zrotation Yrotation Xrotation
			JOINT Spine1
			{
				OFFSET 0.000000 1.950000 0.060000
				CHANNELS 3 Zrotation Yrotation Xrotation
				JOINT Neck
				{
					OFFSET 0.000000 0.000000 0.000000
					CHANNELS 3 Zrotation Yrotation Xrotation
					JOINT Neck1
					{
						OFFSET 0.000000 1.600000 0.340000
						CHANNELS 3 Zrotation Yrotation Xrotation
						JOINT Head
						{
							OFFSET 0.000000 1.667000 -0.240000
							CHANNELS 3 Zrotation Yrotation Xrotation
							End Site
							{
								OFFSET 0.000000 0.000000 0.000000
							}
						}
					}
				}
				JOINT LeftShoulder
				{
					OFFSET 0.000000 0.000000 0.000000
					CHANNELS 3 Zrotation Yrotation Xrotation
					JOINT LeftArm
					{
						OFFSET 2.700000 1.550000 -0.730000
						CHANNELS 3 Zrotation Yrotation Xrotation
						JOINT LeftForeArm
						{
							OFFSET 5.450000 0.000000 0.000000
							CHANNELS 3 Zrotation Yrotation Xrotation
							JOINT LeftHand
							{
								OFFSET 3.450000 0.000000 0.000000
								CHANNELS 3 Zrotation Yrotation Xrotation
								JOINT LeftHandIndex1
								{
									OFFSET 0.750000 0.000000 0.000000
									CHANNELS 3 Zrotation Yrotation Xrotation
									End Site
									{
										OFFSET 0.000000 0.000000 0.000000
									}
								}
							}
						}
					}
				}
				JOINT RightShoulder
				{
					OFFSET 0.000000 0.000000 0.000000
					CHANNELS 3 Zrotation Yrotation Xrotation
					JOINT RightArm
					{
						OFFSET -2.700000 1.550000 -0.730000
						CHANNELS 3 Zrotation Yrotation Xrotation
						JOINT RightForeArm
						{
							OFFSET -5.450000 0.000000 0.000000
							CHANNELS 3 Zrotation Yrotation Xrotation
							JOINT RightHand
							{
								OFFSET -3.450000 0.000000 0.000000
								CHANNELS 3 Zrotation Yrotation Xrotation
								JOINT RightHandIndex1
								{
									OFFSET -0.750000 0.000000 0.000000
									CHANNELS 3 Zrotation Yrotation Xrotation
									End Site
									{
										OFFSET 0.000000 0.000000 0.000000
									}
								}
							}
						}
					}
				}
			}
		}
	}
}
MOTION
Frames: 9
Frame Time: 0.016667
-0.499630 16.022980 -1.364980 -14.278860 53.630972 -23.589034 -15.849853 11.810494 4.024657 7.948511 -1.761731 -46.323935 15.360114 4.953890 53.218917 0.374363 8.656943 1.238913 0.509430 0.352020 0.427890 17.823318 -10.313039 2.701762 -13.119850 8.393885 4.552664 22.300160 -22.878825 51.410881 -1.987200 -10.844038 0.714095 0.253920 -0.170550 0.082530 -3.145480 0.151269 -8.500702 -2.024429 8.141278 23.524233 -8.417527 12.601698 10.840655 9.200051 0.458887 -11.227883 0.600033 -3.867816 53.224258 0.457770 -7.128620 -11.124700 -23.120446 -14.210081 6.984781 -45.536612 -3.619467 -9.639287 -55.682985 -58.740595 24.404246 -3.325311 3.445966 0.410290 -0.173580 0.187820 0.058520 5.227487 23.295785 2.834416 -0.141473 25.620730 -4.003987 7.826945 41.735238 5.008221 2.166800 -1.462864 -0.017800 0.138930 -0.129320 -0.160070 
-0.476790 16.025520 -1.345050 -14.043733 54.140120 -23.168326 -15.850271 11.792390 4.066313 7.429376 -1.921412 -46.700352 15.694019 4.825821 53.424251 0.446444 8.656648 1.257220 0.477360 0.318730 0.397930 17.811312 -10.335636 2.704169 -13.697407 8.095347 4.943192 23.066020 -22.989536 50.170670 -1.961810 -10.749209 0.755894 0.210920 -0.162020 0.073410 -3.170085 0.169181 -8.541132 -1.855814 8.996567 22.780156 -6.408048 12.886134 10.187552 7.441921 1.061150 -11.779368 1.366833 -4.184468 54.611389 1.942480 -6.997270 -8.942370 -23.352272 -14.375212 7.187330 -43.252644 -1.961652 -9.072220 -59.451569 -57.683387 26.417243 -3.333731 3.460181 0.395790 -0.175110 0.183090 0.067330 8.945045 22.887867 4.160956 6.186538 23.510093 -4.033134 10.430138 43.902608 5.717895 2.177170 -1.453279 -0.005730 0.116560 -0.136090 -0.144510 
-0.427720 16.026000 -1.321030 -14.106705 53.924172 -23.857434 -15.853820 11.888500 4.083438 7.995406 -1.860625 -46.211861 15.406921 5.110766 54.703036 0.528361 8.870334 1.189345 0.480340 0.325740 0.400530 17.790506 -10.356443 2.658638 -14.281562 7.161585 6.614775 23.393451 -23.026463 48.652498 -1.947870 -10.614144 0.804366 0.197920 -0.178490 0.065420 -3.055389 -0.069831 -8.521771 -1.450775 9.843003 21.889984 -2.271050 12.969058 9.677697 5.144308 0.896699 -11.388823 0.334715 -3.912634 56.294090 2.713710 -6.522610 -7.782150 -24.368497 -12.591904 6.342106 -40.966398 -0.836521 -7.814100 -62.249928 -54.783212 27.143208 -3.353265 3.451050 0.395570 -0.188850 0.196100 0.073440 14.682436 20.791269 5.324904 15.626304 19.669486 -5.437092 12.089608 48.297888 5.862565 2.179432 -1.491177 0.008770 0.099250 -0.154630 -0.140660 
-0.353100 16.005980 -1.282200 -13.025803 53.204783 -23.497441 -15.839546 11.998961 4.165108 8.591467 -2.271476 -45.452546 14.577607 5.641260 56.627893 0.666308 9.186194 1.105396 0.462450 0.320120 0.350140 17.777880 -10.408723 2.536640 -15.876366 5.981796 7.990112 22.542039 -22.999563 47.956936 -1.913192 -10.512861 0.852549 0.171600 -0.160700 0.053080 -2.914714 -0.464780 -8.475414 -1.222692 10.243900 20.269890 2.106679 12.540376 9.264798 2.485740 -0.874575 -10.892699 -4.580665 -1.785833 57.157238 4.469070 -6.214930 -6.032990 -23.783957 -9.572022 5.634390 -40.702293 0.580274 -6.810378 -68.669265 -55.530926 31.971086 -3.365471 3.503130 0.374310 -0.194340 0.187450 0.098450 19.610722 18.187219 6.132898 24.347259 14.276354 -6.312889 18.823572 48.080802 7.343055 2.241125 -1.563988 0.026530 0.081600 -0.164650 -0.109700 
-0.259550 15.983270 -1.241100 -11.126211 50.691618 -22.813823 -15.810407 12.117861 4.121140 9.949426 -2.223030 -43.591786 13.224663 6.696360 58.790306 0.785737 9.628872 0.979659 0.438220 0.290690 0.353520 17.781532 -10.601283 2.336756 -17.683077 4.964904 9.324116 19.621572 -22.250712 48.471718 -1.854249 -10.409038 0.886997 0.145910 -0.159460 0.051870 -2.893384 -0.563021 -8.314417 -0.508272 10.739242 17.799075 5.444786 12.343073 9.230509 0.684215 -1.583191 -10.229247 -7.040734 -0.674735 57.363543 3.435180 -4.407530 -3.953310 -22.557595 -5.998489 4.987242 -39.154650 2.283584 -5.397784 -79.195740 -57.725322 41.120691 -3.409128 3.560242 0.360670 -0.175750 0.180610 0.094540 22.124046 14.263645 6.278770 33.256911 7.969852 -8.062692 19.737674 46.294662 6.311023 2.259637 -1.601293 0.024000 0.060200 -0.170380 -0.118730 
-0.173330 15.941380 -1.168770 -8.731814 46.938232 -21.619037 -15.764391 12.218617 4.001592 11.493006 -1.782151 -41.350213 11.532840 8.194461 60.683633 0.895611 10.111232 0.846320 0.396070 0.234720 0.342270 17.811537 -10.833620 2.102391 -19.681685 4.262225 10.445198 16.237952 -20.904002 48.643483 -1.749860 -10.209992 0.947922 0.115120 -0.134580 0.049830 -2.946760 -0.517761 -8.068436 0.062160 11.499810 14.769512 8.773603 12.472130 9.069942 -1.123525 -2.045072 -9.154124 -8.740050 0.023050 56.148897 3.028390 -2.742010 -2.335130 -19.157370 -0.840341 4.505830 -38.174946 4.406898 -3.611721 -94.578925 -61.771949 57.183490 -3.452427 3.620234 0.351650 -0.146720 0.156220 0.086660 22.407290 8.887796 5.397946 40.864398 2.025395 -9.970029 16.219885 41.964986 3.962018 2.266134 -1.563210 0.002100 0.050070 -0.157760 -0.131290 
-0.084860 15.881410 -1.106560 -6.374539 42.049066 -20.412154 -15.658910 12.211129 3.907541 13.389855 -1.279238 -38.914398 9.263763 10.345760 62.901960 1.053372 10.763596 0.670804 0.310810 0.127900 0.316340 17.903314 -11.115580 1.862572 -22.426118 4.034218 10.622308 12.779609 -19.584353 49.192046 -1.624404 -10.055557 0.984655 0.056550 -0.095450 0.052030 -3.251702 -0.151786 -7.902491 2.162908 12.139567 11.902934 10.102852 12.765192 8.213420 -2.223104 -1.067822 -8.321472 -7.177221 -0.496609 55.106155 2.501470 -0.835340 0.589770 -15.262521 3.529028 4.422080 -34.623933 7.194563 -2.105949 -119.086861 -64.635310 85.966414 -3.444618 3.614464 0.328100 -0.094150 0.113840 0.060580 20.642740 3.083837 4.342512 47.187700 -3.749395 -11.609306 12.245108 35.904161 1.995598 2.300314 -1.471530 -0.029930 0.025440 -0.124790 -0.150030 
-0.004680 15.813790 -1.045580 -4.466142 35.992430 -19.257387 -15.441576 12.155106 3.830139 15.244615 -0.670282 -36.544936 7.314657 12.502896 64.985593 1.273564 11.434478 0.526312 0.206520 0.008090 0.241000 18.109152 -11.397845 1.655785 -25.175962 4.214691 9.500358 9.535111 -18.224624 49.941728 -1.482641 -9.916981 1.029123 -0.016880 -0.018230 0.059440 -3.893192 0.360217 -7.825490 6.613388 12.215028 9.685419 8.933609 12.784963 6.810704 -2.945523 -0.620041 -7.564302 -6.573010 -0.995234 53.063285 2.145530 -0.371280 4.176520 -10.598721 8.355819 4.282211 -29.859600 9.813313 -0.152560 -145.845000 -64.630659 123.651784 -3.410592 3.810762 0.267980 -0.024930 0.049490 0.059680 16.915713 -3.032472 3.425692 51.682011 -8.857362 -13.361113 12.940635 32.733660 1.732157 2.342248 -1.427488 -0.048530 0.003600 -0.089400 -0.131680 
0.066710 15.758770 -0.968660 -2.672031 30.855988 -18.132652 -15.207670 12.089316 3.761586 16.145802 -0.676243 -33.970975 5.054864 14.491505 66.215061 1.451440 11.957312 0.422247 0.111090 -0.104520 0.190660 18.322981 -11.625393 1.532748 -28.287806 4.083638 8.737888 7.792498 -17.477203 49.025063 -1.348162 -9.722830 1.085155 -0.083850 0.033740 0.056290 -4.505892 0.783767 -7.771855 10.659416 11.625219 8.063137 5.831062 12.168471 4.297782 -2.772469 0.732608 -6.829530 -3.583105 -1.580138 51.731203 2.043450 0.426800 6.727710 -7.245095 12.895516 3.646230 -22.265232 11.780365 2.503561 179.498300 -64.326912 179.796611 -3.605475 3.966992 0.233010 0.026460 -0.001100 0.042110 12.554109 -9.700095 2.648150 54.679802 -13.552656 -15.197451 16.550357 30.815608 2.080025 2.376989 -1.382072 -0.074940 -0.011700 -0.054130 -0.132780 
